Coordinates
version=1
nRows=22
nColumns=32
inDegrees=yes

Units are S.I. units (second, meters, Newtons, ...)
If the header above contains a line with 'inDegrees', this indicates whether rotational values are in degrees (yes) or radians (no).

endheader
time	pelvis_tilt	pelvis_list	pelvis_rotation	pelvis_tx	pelvis_ty	pelvis_tz	hip_flexion_r	hip_adduction_r	hip_rotation_r	knee_angle_r	knee_adduction_r	med_cond_adduction_r	lat_cond_adduction_r	patella_r_constrained_knee_angle	hip_flexion_l	hip_adduction_l	hip_rotation_l	knee_angle_l	knee_adduction_l	med_cond_adduction_l	lat_cond_adduction_l	patella_l_constrained_knee_angle	lumbar_extension	lumbar_bending	lumbar_rotation	ankle_angle_r	subtalar_angle_r	mtp_angle_r	ankle_angle_l	subtalar_angle_l	mtp_angle_l
      1.19500000	    -14.90930572	     -1.03392836	     -2.31238565	     -1.07694932	      0.67305839	      0.36710487	      8.82289110	      0.77722530	      3.77016354	    -27.52065455	     -5.68989004	      0.00000000	      0.00000000	     -0.48032603	     47.20225016	     -3.09557677	     -0.12762281	    -18.01048994	     -4.71441618	      0.00000000	      0.00000000	     -0.31434235	     -1.96727478	      4.31774519	      3.40221895	     10.54833929	     13.77182191	     -0.00000000	      1.08881865	      4.09312426	     -0.00000000
      1.20000000	    -14.69302040	     -0.87000596	     -2.33301548	     -1.06953888	      0.67252577	      0.36608101	      8.73640777	      0.47003531	      3.87640792	    -28.96876523	     -5.55081034	      0.00000000	      0.00000000	     -0.50560033	     47.03009405	     -2.80307765	     -0.94724475	    -18.71996877	     -4.80306016	     -0.00000000	     -0.00000000	     -0.32672509	     -2.00799403	      3.98454073	      3.40680344	      9.75860690	     13.87044106	      0.00000000	      0.57696793	      5.00053445	     -0.00000000
      1.20500000	    -14.50149892	     -0.68844073	     -2.33681271	     -1.06213084	      0.67198340	      0.36504917	      8.73937620	      0.14870337	      4.04891440	    -30.49154226	     -5.38234136	      0.00000000	      0.00000000	     -0.53217781	     46.89583557	     -2.47939232	     -1.65735618	    -19.57260917	     -4.87867076	      0.00000000	      0.00000000	     -0.34160647	     -2.03887029	      3.58551657	      3.47902455	      8.92516612	     13.86260712	      0.00000000	      0.02484101	      6.13053307	     -0.00000000
      1.21000000	    -14.28973084	     -0.52329346	     -2.29162835	     -1.05474071	      0.67148393	      0.36398991	      8.78617850	     -0.14796364	      4.23847647	    -32.10583297	     -5.18004473	     -0.00000000	     -0.00000000	     -0.56035249	     46.75584249	     -2.13731023	     -2.18957222	    -20.53828113	     -4.93264633	     -0.00000000	     -0.00000000	     -0.35846063	     -2.11775173	      3.17088602	      3.48038337	      7.87257183	     13.77424777	      0.00000000	     -0.59693353	      7.11521985	      0.00000000
      1.21500000	    -14.05692654	     -0.35918180	     -2.18900621	     -1.04734777	      0.67105530	      0.36286442	      8.85752168	     -0.45145506	      4.43678671	    -33.78493209	     -4.93226086	     -0.00000000	     -0.00000000	     -0.58965830	     46.60820204	     -1.73100660	     -2.46691132	    -21.61942961	     -4.98697166	      0.00000000	      0.00000000	     -0.37733023	     -2.18494519	      2.74307559	      3.40017886	      6.44427194	     13.45673709	      0.00000000	     -1.30993003	      7.21023747	      0.00000000
      1.22000000	    -13.81371278	     -0.16553117	     -2.05527945	     -1.04004469	      0.67066514	      0.36171279	      9.01349893	     -0.80344833	      4.62535263	    -35.57280306	     -4.63115128	     -0.00000000	     -0.00000000	     -0.62086254	     46.44522240	     -1.27032812	     -2.54450685	    -22.73447898	     -5.02044126	      0.00000000	      0.00000000	     -0.39679151	     -2.33806777	      2.28451145	      3.37450979	      5.03202593	     13.11962312	      0.00000000	     -1.90804086	      7.27712488	     -0.00000000
      1.22500000	    -13.65302105	      0.02262479	     -1.90663435	     -1.03278781	      0.67022868	      0.36054572	      9.36117737	     -1.15372445	      4.83349494	    -37.50029184	     -4.26375178	     -0.00000000	     -0.00000000	     -0.65450356	     46.39258294	     -0.81112764	     -2.36072201	    -23.93569152	     -4.99643295	      0.00000000	      0.00000000	     -0.41775663	     -2.35103513	      1.80840649	      3.18505436	      3.73030027	     13.18991692	      0.00000000	     -2.36043507	      7.69660894	     -0.00000000
      1.23000000	    -13.49122526	      0.21399183	     -1.71735299	     -1.02558065	      0.66982406	      0.35935554	      9.76489109	     -1.51992100	      5.02825012	    -39.47605348	     -3.84570189	     -0.00000000	     -0.00000000	     -0.68898711	     46.35299486	     -0.31723510	     -1.94183960	    -25.19552575	     -4.92558587	     -0.00000000	     -0.00000000	     -0.43974488	     -2.32464508	      1.35031114	      2.94739262	      2.24448780	     13.28497993	      0.00000000	     -2.64494305	      8.08917818	     -0.00000000
      1.23500000	    -13.32993939	      0.43293163	     -1.49688119	     -1.01846864	      0.66950945	      0.35814612	     10.23762158	     -1.92864376	      5.20866353	    -41.48775425	     -3.39777946	      0.00000000	      0.00000000	     -0.72409791	     46.28773714	      0.23859390	     -1.22355812	    -26.43263228	     -4.80542204	      0.00000000	      0.00000000	     -0.46133646	     -2.36897399	      0.84334682	      2.77847590	      0.59453525	     13.16757933	      0.00000000	     -2.82983569	      7.78935886	      0.00000000
      1.24000000	    -13.13682057	      0.65786361	     -1.23539456	     -1.01143327	      0.66927196	      0.35692935	     10.71612079	     -2.34399958	      5.33185339	    -43.48865354	     -2.96592116	     -0.00000000	     -0.00000000	     -0.75902019	     46.16695278	      0.81777398	     -0.21535532	    -27.66500525	     -4.57499639	      0.00000000	      0.00000000	     -0.48284543	     -2.48551811	      0.35953843	      2.56140563	     -1.08592584	     13.02695337	      0.00000000	     -2.88149560	      7.18071512	     -0.00000000
      1.24500000	    -12.97833072	      0.89844273	     -0.97568334	     -1.00444857	      0.66908033	      0.35574357	     11.30270233	     -2.77938990	      5.45189082	    -45.55049326	     -2.50833575	     -0.00000000	     -0.00000000	     -0.79500608	     46.06226794	      1.39877423	      0.95693905	    -28.87073000	     -4.26510490	      0.00000000	      0.00000000	     -0.50388930	     -2.54640196	     -0.16676547	      2.35571809	     -2.70389435	     12.88611191	     -0.00000000	     -2.70655115	      6.36054829	      0.00000000
      1.25000000	    -12.77556011	      1.13114634	     -0.66618195	     -0.99760130	      0.66902650	      0.35456785	     11.85279081	     -3.19175226	      5.58254151	    -47.54801254	     -2.04521308	      0.00000000	      0.00000000	     -0.82986937	     45.86428768	      2.00555841	      2.39251031	    -30.00963819	     -3.87041417	      0.00000000	      0.00000000	     -0.52376699	     -2.73031722	     -0.76237074	      2.19530836	     -3.83222006	     10.96235342	      0.00000000	     -2.92569466	      4.92446206	     -0.00000000
      1.25500000	    -12.93261059	      1.20718671	     -0.48057947	     -0.99065899	      0.66873790	      0.35349270	     12.78634356	     -3.34094645	      5.91713883	    -49.35028988	     -1.62997744	     -0.00000000	     -0.00000000	     -0.86132505	     46.04212517	      2.33397739	      3.85916691	    -31.12500737	     -3.37527228	     -0.00000000	     -0.00000000	     -0.54323386	     -2.09245757	     -0.78406959	      2.15316662	     -4.50145294	      8.71868663	      0.00000000	     -3.26879179	      3.75633763	      0.00000000
      1.26000000	    -12.44085769	      1.72644165	     -0.12132652	     -0.98401567	      0.66908528	      0.35238886	     13.23162248	     -4.19785902	      5.59363218	    -51.55116254	     -1.26527148	      0.00000000	      0.00000000	     -0.89973752	     45.41460724	      3.14918160	      5.35226504	    -32.06207965	     -2.68964246	      0.00000000	      0.00000000	     -0.55958885	     -3.01358213	     -1.92888926	      1.42867999	     -6.78532572	     12.29022356	     -0.00000000	     -1.24064169	      2.71157857	      0.00000000
      1.26500000	    -12.24592351	      2.04181917	      0.16768663	     -0.97733256	      0.66930739	      0.35138312	     13.91531917	     -4.70467410	      5.58834925	    -53.46148027	     -0.90715882	      0.00000000	      0.00000000	     -0.93307885	     45.06116702	      3.71250573	      6.84952464	    -32.90917873	     -2.02286381	     -0.00000000	     -0.00000000	     -0.57437352	     -3.24093266	     -2.56248259	      1.08329557	     -7.56468589	     12.18364322	      0.00000000	     -0.71605435	      1.49522380	      0.00000000
      1.27000000	    -12.04764008	      2.36814850	      0.43232061	     -0.97072587	      0.66963329	      0.35047138	     14.64106724	     -5.20484152	      5.52697951	    -55.34507885	     -0.63353254	      0.00000000	      0.00000000	     -0.96595385	     44.65434085	      4.22046586	      8.25315412	    -33.65682405	     -1.28858278	      0.00000000	      0.00000000	     -0.58742240	     -3.46872979	     -3.22087176	      0.78315346	     -8.20938988	     12.07755725	      0.00000000	     -0.07777525	      0.38026863	      0.00000000
      1.27500000	    -11.88786581	      2.63315609	      0.68336855	     -0.96418172	      0.67001763	      0.34966985	     15.42676991	     -5.59808733	      5.44310908	    -57.14710016	     -0.42019659	     -0.00000000	     -0.00000000	     -0.99740506	     44.24389385	      4.61801359	      9.55692664	    -34.30190597	     -0.53139007	      0.00000000	      0.00000000	     -0.59868120	     -3.66745683	     -3.78166366	      0.50533353	     -8.76568126	     12.11303076	     -0.00000000	      0.77322858	     -1.01063065	      0.00000000
      1.28000000	    -11.72062900	      2.90393613	      0.91002981	     -0.95767936	      0.67054087	      0.34898548	     16.22400463	     -5.97260343	      5.32507909	    -58.86534704	     -0.27407893	     -0.00000000	     -0.00000000	     -1.02739412	     43.75699689	      4.96925748	     10.61893439	    -34.81720825	      0.16919284	     -0.00000000	     -0.00000000	     -0.60767492	     -3.90271978	     -4.36770208	      0.20671282	     -9.04758851	     12.08573571	     -0.00000000	      1.46377740	     -2.05268698	      0.00000000
      1.28500000	    -11.55081522	      3.18885175	      1.12635809	     -0.95122909	      0.67118160	      0.34838091	     17.04688146	     -6.35169462	      5.13592601	    -60.52024409	     -0.21289194	     -0.00000000	     -0.00000000	     -1.05627752	     43.19788063	      5.30879116	     11.42550441	    -35.21831095	      0.78362271	      0.00000000	      0.00000000	     -0.61467548	     -4.15438850	     -4.97163433	     -0.06059839	     -9.12134102	     11.94292027	     -0.00000000	      2.02441319	     -2.68068462	     -0.00000000
      1.29000000	    -11.42863657	      3.40750969	      1.29765990	     -0.94484448	      0.67187070	      0.34793984	     17.94020360	     -6.60442831	      4.97693723	    -62.07398251	     -0.19122564	     -0.00000000	     -0.00000000	     -1.08339537	     42.65074984	      5.50673424	     12.00850230	    -35.53981684	      1.35395225	     -0.00000000	     -0.00000000	     -0.62028682	     -4.35515629	     -5.48250490	     -0.30906521	     -9.14271765	     11.85392109	      0.00000000	      2.77049227	     -3.30339342	     -0.00000000
      1.29500000	    -11.36772015	      3.47202589	      1.48070169	     -0.93854659	      0.67263278	      0.34759138	     18.89024277	     -6.63374344	      4.77476663	    -63.50700996	     -0.20443240	      0.00000000	      0.00000000	     -1.10840642	     42.14741135	      5.50665037	     12.48617918	    -35.79955118	      1.93771130	     -0.00000000	     -0.00000000	     -0.62482004	     -4.41878422	     -5.68370256	     -0.25644786	     -8.62246948	     11.05826742	     -0.00000000	      2.08537713	     -3.07737275	     -0.00000000
      1.30000000	    -11.18988300	      3.80633402	      1.59427777	     -0.93219204	      0.67361221	      0.34730927	     19.77375579	     -7.03023977	      4.57423145	    -64.88827144	     -0.23119873	      0.00000000	      0.00000000	     -1.13251398	     41.37998797	      5.83446399	     12.18987551	    -35.89401932	      1.94616845	     -0.00000000	     -0.00000000	     -0.62646882	     -4.73627804	     -6.45544435	     -0.82104467	     -8.84340118	     11.59029925	      0.00000000	      3.80999816	     -3.56151154	     -0.00000000
